<?xml version="1.0" standalone="no"?>
<!DOCTYPE svg PUBLIC "-//W3C//DTD SVG 20010904//EN"
 "http://www.w3.org/TR/2001/REC-SVG-20010904/DTD/svg10.dtd">
<svg version="1.0" xmlns="http://www.w3.org/2000/svg"
 width="256.000000pt" height="256.000000pt" viewBox="0 0 256.000000 256.000000"
 preserveAspectRatio="xMidYMid meet">

<g transform="translate(0.000000,256.000000) scale(0.100000,-0.100000)"
fill="#000000" stroke="none">
<path d="M1205 2528 c-16 -5 -45 -16 -63 -25 -18 -8 -55 -18 -82 -22 -34 -6
-58 -16 -74 -35 -15 -16 -36 -26 -52 -26 -20 0 -42 -16 -86 -61 -32 -33 -58
-65 -58 -70 0 -19 -55 -58 -82 -59 -17 0 -28 -6 -28 -13 0 -17 -41 -73 -101
-141 -25 -28 -71 -86 -102 -128 -47 -63 -55 -81 -48 -100 6 -16 3 -32 -9 -53
-9 -16 -29 -63 -44 -103 -27 -69 -48 -102 -66 -102 -5 0 -11 -15 -15 -32 -3
-18 -10 -51 -15 -73 -5 -22 -16 -80 -25 -130 -9 -49 -21 -101 -26 -114 -11
-27 -10 -30 21 -36 33 -6 34 -9 34 -83 1 -58 -1 -67 -16 -64 -14 2 -18 -4 -18
-24 0 -44 32 -207 46 -235 7 -15 18 -48 24 -75 8 -33 22 -59 51 -87 34 -34 39
-45 34 -69 -5 -22 -1 -35 19 -59 14 -17 26 -35 26 -40 0 -12 142 -160 202
-211 40 -33 51 -38 63 -28 25 20 80 -19 79 -56 -1 -26 6 -33 70 -66 66 -33 73
-35 98 -22 23 12 29 11 50 -6 39 -30 107 -50 173 -50 34 0 65 -4 70 -9 11 -9
133 3 200 20 122 31 130 34 133 62 4 31 28 35 92 16 34 -10 42 -9 68 10 17 11
33 21 37 21 15 0 115 92 115 106 0 22 39 56 58 50 9 -3 27 2 38 12 38 30 95
114 89 130 -3 8 3 25 13 36 25 27 59 94 66 128 4 18 14 28 28 30 16 2 27 16
41 53 10 28 19 57 19 65 1 24 26 117 37 139 6 11 11 43 11 71 0 28 6 61 14 73
11 17 14 55 11 172 -4 177 -7 199 -27 203 -8 2 -20 23 -27 50 -6 26 -16 64
-22 86 -5 21 -22 66 -38 100 -16 33 -32 76 -36 94 -3 18 -15 37 -25 42 -10 6
-21 26 -25 48 -12 73 -32 117 -54 120 -23 4 -91 81 -91 104 0 31 -147 203
-187 218 -12 5 -30 22 -39 37 -24 38 -85 92 -106 93 -9 0 -20 4 -23 10 -19 31
-249 108 -340 115 -27 2 -63 -1 -80 -7z m206 -107 c133 -21 278 -120 404 -275
33 -41 67 -75 76 -75 9 -1 29 -17 44 -37 21 -27 26 -43 22 -67 -5 -25 3 -47
37 -107 29 -50 50 -76 64 -78 16 -3 25 -19 42 -75 24 -82 29 -93 60 -160 12
-27 20 -57 17 -68 -3 -11 3 -46 14 -77 13 -35 18 -69 14 -89 -8 -46 4 -83 31
-93 29 -11 32 -46 5 -53 -13 -3 -20 -16 -23 -43 -3 -22 -1 -40 3 -42 9 -4 1
-109 -11 -137 -5 -11 -16 -53 -25 -93 -17 -69 -121 -293 -158 -337 -9 -11 -27
-36 -39 -54 -13 -19 -46 -53 -75 -75 -28 -23 -91 -72 -139 -110 -48 -38 -105
-76 -127 -83 -23 -8 -65 -26 -94 -39 -59 -28 -192 -47 -231 -32 -13 4 -56 8
-95 8 -102 0 -253 40 -367 98 -76 38 -110 63 -176 129 -45 44 -93 89 -107 98
-14 9 -28 28 -32 43 -11 43 -45 92 -68 97 -18 5 -22 13 -22 48 0 29 -9 54 -28
82 -20 30 -27 52 -27 89 0 30 -6 56 -15 66 -22 24 -48 193 -43 272 3 37 1 71
-5 77 -20 20 14 178 62 290 22 51 38 98 35 103 -3 5 1 15 8 21 8 7 21 28 28
47 8 19 24 52 37 72 13 21 23 45 23 54 0 27 99 202 118 208 9 4 36 32 59 64
49 67 111 132 127 132 6 0 31 20 55 45 43 43 144 102 260 152 59 25 123 26
262 4z"/>
<path d="M780 789 c0 -7 -7 -21 -16 -31 -15 -16 -16 -27 -5 -90 44 -277 302
-451 564 -383 74 19 144 54 128 64 -6 4 -9 15 -5 24 7 20 -7 22 -24 5 -9 -9
-13 -4 -18 20 -4 18 -10 33 -15 33 -20 3 -25 5 -36 12 -7 5 -13 6 -13 3 0 -3
-15 1 -32 7 -18 7 -58 13 -88 12 -59 -1 -68 4 -87 48 -9 19 -20 27 -38 27 -14
0 -25 6 -25 13 0 9 -14 14 -41 15 -46 2 -73 18 -65 38 3 8 -1 17 -9 22 -8 4
-26 23 -40 42 -14 19 -29 35 -33 36 -4 0 -18 5 -32 12 -14 6 -37 13 -52 16
-32 7 -36 23 -9 34 16 6 17 9 5 20 -11 10 -14 10 -14 1z"/>
</g>
</svg>
